<?xml version="1.0" standalone="no"?><!DOCTYPE svg PUBLIC "-//W3C//DTD SVG 1.1//EN" "http://www.w3.org/Graphics/SVG/1.1/DTD/svg11.dtd"><svg t="1749914274492" class="icon" viewBox="0 0 1024 1024" version="1.1" xmlns="http://www.w3.org/2000/svg" p-id="6545" xmlns:xlink="http://www.w3.org/1999/xlink" width="200" height="200"><path d="M645.513846 471.394462a70.340923 70.340923 0 1 0 140.642462 0 70.340923 70.340923 0 0 0-140.681846 0zM306.097231 272.699077a121.304615 121.304615 0 1 0 242.688 0 121.304615 121.304615 0 0 0-242.688 0z" fill="#030000" p-id="6546"></path><path d="M831.881846 132.017231C770.323692 65.181538 691.2 1.890462 492.504615 0.118154c-77.351385 0-195.190154 17.604923-288.374153 114.294154C147.849846 172.504615 107.401846 248.123077 119.729231 369.427692c1.732923 26.387692 40.448 56.280615 14.060307 107.283693 0 0-56.280615 100.233846-54.508307 116.066461 0 0-1.772308 29.892923 45.686154 31.625846 0 0 12.327385 1.772308 8.822153 28.16v36.903385s1.772308 10.555077 22.843077 17.604923c0 0 3.544615 3.505231-1.732923 10.555077 0 0-10.555077 12.288 7.010462 38.675692 7.049846 8.782769 17.604923 21.110154 10.555077 45.686154 0 0-8.782769 47.497846 10.555077 58.052923 0 0 21.110154 24.615385 105.511384 14.060308 29.892923-3.544615 84.401231-17.565538 117.799385 22.843077 0 0 56.280615 91.451077 63.330461 126.621538 0 0 167.030154-124.849231 330.555077-161.752615 0 0-52.775385-145.959385 28.16-262.025846 0 0 102.006154-133.632 103.739077-207.478154 0 5.277538 26.387692-117.838769-100.233846-260.253539z m-286.641231 284.868923a38.281846 38.281846 0 0 1-14.060307 8.782769c-5.277538 3.544615-12.288 7.049846-17.565539 10.555077v38.675692l-15.832615 5.277539c-3.544615 1.772308-7.049846 1.772308-8.782769 3.544615-7.049846-10.555077-15.832615-19.377231-22.843077-29.932308-8.822154 1.772308-15.872 3.544615-24.65477 3.544616-5.277538 10.555077-10.555077 22.843077-15.832615 35.170461 0 0 0 1.732923-1.732923 1.732923-8.782769 0-17.604923-1.732923-26.387692-1.732923-3.544615-12.327385-7.049846-26.387692-10.555077-38.715077 0-1.732923-1.732923-1.732923-3.544616-1.732923-8.743385-1.772308-15.793231-5.277538-22.843077-7.049846a455.286154 455.286154 0 0 0-29.892923 26.387693 160.531692 160.531692 0 0 1-22.843077-14.060308c1.772308-14.060308 5.277538-26.387692 7.049847-40.448a100.785231 100.785231 0 0 1-19.337847-19.337846c-1.772308-1.772308-3.544615-3.544615-5.277538-7.049846-12.327385 3.544615-24.654769 5.277538-38.715077 8.782769h-1.732923c-5.277538-7.010462-8.822154-15.793231-14.099692-22.843077l26.387692-31.665231c-3.544615-7.010462-5.277538-15.832615-8.782769-24.615385-12.327385-3.544615-26.387692-5.277538-38.675693-7.010461-1.772308-8.822154-1.772308-17.604923-3.544615-26.387692 12.327385-5.277538 22.843077-12.327385 35.170462-17.604923 0-10.515692 0-19.298462 1.772307-28.120616-10.555077-7.049846-19.337846-14.060308-29.892923-21.110154 0 0-3.544615-1.732923-1.772307-3.50523 1.772308-7.049846 3.544615-14.060308 7.049846-21.110154 0-1.732923 0-1.732923 1.772307-3.544616 12.288 0 24.615385 0 36.903385-1.732923 1.772308 0 3.544615 0 3.544615-1.732923 3.505231-7.049846 7.010462-12.327385 10.515693-19.337846a13.312 13.312 0 0 0 3.544615-7.089231c-5.277538-12.288-12.327385-22.843077-17.604923-35.131077 5.277538-7.049846 12.327385-12.327385 17.604923-19.337846l36.903385 15.832616a38.281846 38.281846 0 0 1 14.060307-8.822154c5.277538-3.505231 12.327385-7.010462 17.604923-10.515693v-38.715077l15.832616-5.277538c3.505231-1.732923 7.010462-1.732923 8.782769-3.505231 3.544615 12.327385 12.327385 21.110154 19.337846 31.665231 8.782769 0 15.832615-1.772308 24.615385-1.772308v-1.772307c5.277538-12.288 10.555077-22.843077 15.832615-35.170462 8.782769 0 17.565538 1.772308 26.387693 1.772308 3.505231 12.327385 7.010462 24.615385 8.782769 36.942769 8.782769 1.732923 15.832615 3.505231 24.615384 7.010462 1.772308 0 3.544615 1.772308 5.277539 0 10.555077-5.277538 19.337846-14.060308 28.120615-21.07077 7.049846 5.238154 15.832615 8.782769 22.843077 14.060308-1.732923 12.288-5.238154 24.615385-7.010461 36.903385 0 1.772308 3.544615 3.544615 5.277538 5.277538 5.277538 5.277538 10.555077 10.555077 15.832615 14.060308l36.94277-10.515693c1.732923 3.505231 3.505231 5.277538 5.238154 8.78277 3.544615 3.544615 5.277538 7.010462 8.822153 12.288 0 0 1.732923 1.772308 0 3.544615-7.049846 10.555077-15.832615 21.070769-22.843077 31.625846 1.732923 5.277538 5.238154 10.555077 7.010462 15.832616l5.277538 15.832615c12.288 3.544615 26.387692 5.277538 38.675693 7.049846 1.772308 8.782769 1.772308 17.565538 3.544615 26.387692-12.327385 5.238154-22.882462 12.288-35.209846 17.565539 0 8.782769 0 19.298462-1.732923 28.120615 10.555077 7.049846 21.110154 15.832615 31.625846 22.843077-1.732923 7.089231-5.277538 14.099692-7.010461 21.110154 0 1.772308-1.772308 3.544615-1.772308 3.544615-14.060308 0-26.387692 0-40.448 1.732924-3.505231 7.049846-7.010462 14.060308-10.555077 19.337846a13.312 13.312 0 0 0-3.505231 7.049846c5.277538 12.288 12.327385 22.843077 17.604923 35.170461-5.277538 7.010462-12.327385 12.288-17.604923 19.337847-8.782769-3.544615-19.337846-8.782769-31.665231-14.060308z m300.701539 86.173538a32.610462 32.610462 0 0 0-3.544616 12.288v1.772308h-24.576c-1.772308 3.505231-3.544615 8.782769-7.049846 12.288 0 1.772308-1.732923 3.544615-1.732923 3.544615l10.515693 21.07077c-3.505231 3.544615-7.010462 7.049846-10.515693 12.327384l-21.110154-10.555077c-3.544615 1.772308-5.277538 3.544615-8.782769 5.277539-3.544615 1.772308-7.049846 3.544615-10.555077 7.010461v24.65477c-3.544615 1.732923-7.049846 1.732923-10.555077 3.50523-1.772308 0-3.544615 1.732923-5.277538 1.732923-5.277538-5.238154-8.782769-12.288-14.060308-17.565538a43.716923 43.716923 0 0 1-14.099692 1.772308c-3.505231 7.010462-5.238154 14.060308-8.782769 21.070769v1.772308c-5.277538 0-10.555077-1.772308-15.832616-1.772308-1.732923-7.010462-3.505231-15.793231-5.277538-22.843077 0-1.772308-1.732923 0-1.732923-1.772308-5.277538-1.732923-8.782769-3.505231-14.060308-5.277538-7.049846 5.277538-12.327385 10.555077-19.337846 15.832615-5.277538-3.505231-8.822154-5.277538-14.099692-8.782769 1.772308-8.782769 3.544615-15.832615 5.277538-24.615385-3.505231-3.544615-8.782769-7.049846-12.288-10.555077-5.277538 0-7.049846 0-7.049846-1.772307-7.010462 1.772308-15.832615 3.544615-22.843077 5.277538h-1.772308c-3.544615-5.277538-5.277538-8.782769-8.782769-14.060308 5.277538-7.010462 10.555077-12.288 15.832615-19.298461-1.772308-5.316923-3.544615-8.822154-5.277538-14.099692-7.049846-1.772308-15.832615-3.544615-22.843077-5.277539 0-5.277538-1.772308-10.555077-1.772308-15.832615l21.07077-10.555077c0-5.277538 0-12.288 1.772307-17.565539-5.277538-3.544615-12.288-8.782769-17.565538-12.327384l-1.772308-1.732923c1.772308-3.544615 1.772308-8.822154 3.544615-12.327385v-1.772308h24.576c1.772308-3.505231 3.544615-7.010462 7.049847-10.515692 0-1.772308 1.772308-3.544615 1.772307-3.544615l-10.555077-21.110154c3.505231-3.505231 7.010462-7.010462 10.555077-12.288l21.07077 10.555077c3.544615-1.772308 5.277538-3.544615 8.822153-5.277539 3.505231-1.772308 7.010462-3.544615 10.515693-7.049846v-24.615384c3.544615-1.732923 7.089231-1.732923 10.555077-3.544616 1.772308 0 3.544615-1.732923 5.277538-1.732923 5.277538 5.277538 8.822154 12.327385 14.060308 17.604923 5.277538 0 8.822154-1.772308 14.099692-1.772308 3.505231-7.049846 5.277538-14.060308 8.782769-21.110153 5.277538 0 10.555077 0 15.832616 1.772307 1.732923 7.049846 3.505231 15.832615 5.277538 22.843077 5.277538 1.772308 10.555077 1.772308 14.060308 5.277539 1.732923 0 1.732923 1.772308 3.544615 0 5.238154-5.277538 10.515692-10.555077 17.565539-14.060308 5.277538 3.544615 8.782769 5.277538 14.060307 8.782769-1.772308 7.049846-3.544615 15.832615-3.544615 22.843077 0 1.772308 1.772308 1.772308 3.544615 3.544616 3.544615 3.544615 7.010462 5.277538 8.78277 8.782769 7.049846-1.732923 15.832615-5.277538 22.843077-7.010462 1.772308 1.732923 1.772308 3.505231 3.544615 5.277539 1.732923 1.732923 3.505231 5.277538 5.277538 7.010461 0 0 1.732923 1.772308 0 1.772308-5.277538 7.049846-8.822154 12.288-14.060307 19.337846 1.732923 3.544615 3.505231 7.049846 3.50523 10.555077 1.732923 3.544615 1.732923 7.049846 3.544616 10.555077 7.010462 1.732923 15.753846 3.544615 22.843077 5.277538 1.732923 5.277538 1.732923 10.555077 1.732923 15.832616l-21.110154 10.515692c0 5.277538 0 12.327385-1.732923 17.604923 10.555077-3.544615 17.565538 1.772308 22.843077 7.049846z" fill="#030000" p-id="6547"></path></svg>
